<svg xmlns="http://www.w3.org/2000/svg" viewBox="0 0 512 512" width="512" height="512">
<defs><linearGradient id="g" x1="0" y1="0" x2="0" y2="1"><stop offset="0%" stop-color="#e6cd8f"/><stop offset="100%" stop-color="#cba14d"/></linearGradient>
<radialGradient id="bg" cx="32%" cy="18%" r="105%"><stop offset="0%" stop-color="#171209"/><stop offset="70%" stop-color="#0a0c09"/></radialGradient></defs>
<rect width="512" height="512" rx="112" fill="url(#bg)"/>
<rect x="3" y="3" width="506" height="506" rx="109" fill="none" stroke="#cba14d" stroke-opacity="0.22" stroke-width="4"/>
<g transform="translate(52,7) scale(4.3)" style="filter:drop-shadow(0 0 4px rgba(203,161,77,0.3))"><path d="M60,88 Q 33,58 28,32" fill="none" stroke="url(#g)" stroke-width="2.4" stroke-linecap="round"/><g transform="translate(54.76,83.73) rotate(-45.6)"><path d="M0,0 Q 3.59,-3.19 0,-8.69 Q -3.59,-3.19 0,0 Z" fill="url(#g)"/></g><g transform="translate(57.46,84.23) rotate(-15.1)"><path d="M0,0 Q 2.95,-2.61 0,-7.13 Q -2.95,-2.61 0,0 Z" fill="url(#g)"/></g><g transform="translate(47.94,75.33) rotate(-48.7)"><path d="M0,0 Q 3.46,-3.07 0,-8.38 Q -3.46,-3.07 0,0 Z" fill="url(#g)"/></g><g transform="translate(50.64,75.83) rotate(-17.4)"><path d="M0,0 Q 2.84,-2.52 0,-6.87 Q -2.84,-2.52 0,0 Z" fill="url(#g)"/></g><g transform="translate(42.02,67.08) rotate(-51.9)"><path d="M0,0 Q 3.33,-2.96 0,-8.06 Q -3.33,-2.96 0,0 Z" fill="url(#g)"/></g><g transform="translate(44.72,67.58) rotate(-19.7)"><path d="M0,0 Q 2.73,-2.42 0,-6.61 Q -2.73,-2.42 0,0 Z" fill="url(#g)"/></g><g transform="translate(37.00,59.00) rotate(-55.0)"><path d="M0,0 Q 3.20,-2.84 0,-7.75 Q -3.20,-2.84 0,0 Z" fill="url(#g)"/></g><g transform="translate(39.70,59.50) rotate(-22.0)"><path d="M0,0 Q 2.63,-2.33 0,-6.35 Q -2.63,-2.33 0,0 Z" fill="url(#g)"/></g><g transform="translate(32.88,51.08) rotate(-58.1)"><path d="M0,0 Q 3.07,-2.73 0,-7.43 Q -3.07,-2.73 0,0 Z" fill="url(#g)"/></g><g transform="translate(35.58,51.58) rotate(-24.3)"><path d="M0,0 Q 2.52,-2.23 0,-6.09 Q -2.52,-2.23 0,0 Z" fill="url(#g)"/></g><g transform="translate(29.65,43.33) rotate(-61.3)"><path d="M0,0 Q 2.94,-2.61 0,-7.12 Q -2.94,-2.61 0,0 Z" fill="url(#g)"/></g><g transform="translate(32.35,43.83) rotate(-26.6)"><path d="M0,0 Q 2.41,-2.14 0,-5.84 Q -2.41,-2.14 0,0 Z" fill="url(#g)"/></g><g transform="translate(27.33,35.73) rotate(-64.4)"><path d="M0,0 Q 2.81,-2.49 0,-6.80 Q -2.81,-2.49 0,0 Z" fill="url(#g)"/></g><path d="M60.00,88.00 Q 68.17,89.30 74.42,83.87 Q 66.24,82.57 60.00,88.00 Z" fill="url(#g)"/><path d="M60.00,88.00 Q 71.12,86.55 78.54,78.14 Q 67.42,79.59 60.00,88.00 Z" fill="url(#g)"/><path d="M60.00,88.00 Q 73.16,82.68 80.68,70.64 Q 67.53,75.97 60.00,88.00 Z" fill="url(#g)"/><path d="M60.00,88.00 Q 73.96,77.97 80.32,62.00 Q 66.36,72.03 60.00,88.00 Z" fill="url(#g)"/><path d="M60.00,88.00 Q 73.28,72.78 77.10,52.95 Q 63.82,68.17 60.00,88.00 Z" fill="url(#g)"/><path d="M60.00,88.00 Q 70.97,67.55 70.89,44.34 Q 59.91,64.79 60.00,88.00 Z" fill="url(#g)"/><line x1="60" y1="91" x2="60" y2="29" stroke="url(#g)" stroke-width="3.4" stroke-linecap="round"/><path d="M60,23 l5,6 -5,6 -5,-6 z" fill="url(#g)"/></g>
</svg>